<svg xmlns="http://www.w3.org/2000/svg" viewBox="0 0 512 512" style="width:256px;height:256px"><style type="text/css">.st0{fill:#4B4B4B;}</style><g fill="#fff"><path class="st0" d="M378.409 0h-183.29000000000002l-9.314 9.314-128.789 128.788-9.314 9.314v278.68899999999996c0 47.361 38.528 85.896 85.896 85.896h244.811c47.36 0 85.888-38.535 85.888-85.896v-340.21c.001-47.367-38.528-85.895-85.888-85.895zm54.084 426.104c0 29.877-24.214 54.092-54.084 54.092h-244.811c-29.878 0-54.092-24.215-54.092-54.092v-265.513h83.717c24.885 0 45.07-20.179 45.07-45.07v-83.717h170.116c29.87 0 54.084 24.214 54.084 54.091v340.209zM288.59 223.362c-22.63-10.927-41.75-35.596-41.75-35.596v136.594c-7.062-2.598-15.417-3.365-24.029-1.704-20.674 3.972-34.908 20.283-31.801 36.412 3.107 16.136 22.382 25.988 43.052 22.001 18.356-3.533 31.605-16.786 32.174-31.015h.112v-103.428c59.377 7.254 49.623 49.281 45.517 61.604 34.22-38.332 16.422-65.709-23.275-84.868z"/></g></svg>