<svg xmlns="http://www.w3.org/2000/svg" viewBox="0 0 50 50" enable-background="new 0 0 50 50"><path d="M46.509 3.965l-3.719-3.719c-.328-.328-.859-.328-1.186 0l-15.703 15.08c-.097.097-.169.217-.209.349l-1.899 6.24c-.195.642.405 1.242 1.047 1.047l6.441-1.96 15.228-15.851c.327-.327.327-.858 0-1.186zm-19.901 16.927l-.745-.745 1.095-3.599 2.112 1.136 1.136 2.112-3.598 1.096zm17.54-17.521l-13.378 13.463-.85-.85 13.464-13.379.764.764v.002z"/><path d="M43.82 28.675c-.58 0-1.11.26-1.37.669l-1.28 2.016-4.63-12.838c-.2-.551-.85-.906-1.57-.874-.72.032-1.32.457-1.42 1.016l-3.39 17.052-3.64-21.353c-.1-.591-.73-1.04-1.49-1.048-.75 0-1.42.417-1.53 1.016l-3.2 15.374-1.18-8.018c-.09-.559-.64-.992-1.35-1.055-.71-.063-1.38.268-1.62.803l-3.73 8.506-1.71-4.332c-.19-.496-.77-.835-1.43-.843-.66-.024-1.25.307-1.48.796l-1.62 3.529h-6.18v2.41h7.25c.64 0 1.23-.315 1.44-.796l.43-.945 1.73 4.411c.19.496.77.835 1.44.843.66-.008 1.25-.315 1.47-.819l3.07-6.994 1.67 11.334c.09.599.72 1.055 1.48 1.063h.04c.75 0 1.39-.425 1.5-1.016l3.32-15.886 3.66 21.565c.1.599.75 1.04 1.5 1.048h.01c.76 0 1.39-.425 1.52-1.016l3.95-19.817 3.81 10.554c.18.48.7.827 1.33.874.63.039 1.23-.221 1.52-.669l2.62-4.143h5.24v-2.41h-6.18v-.007z" fill="#010101"/></svg>