<svg xmlns="http://www.w3.org/2000/svg" viewBox="0 0 512 512" style="width:50px;height:50px"><style type="text/css">.st0{fill:#eee;}</style><g fill="#fff"><path class="st0" d="M0 225.197v61.608c0 16.152 13.094 29.248 29.246 29.248h49.549v-120.104h-49.549c-16.152 0-29.246 13.096-29.246 29.248zM110.314 316.053l133.717 76.61v-273.326l-133.717 76.612zM444.527 96l-20.449 20.084c36.508 35.856 59.117 85.287 59.117 139.881 0 54.595-22.609 104.098-59.117 139.952l.07.072 20.379 20.011c41.692-41.016 67.473-97.59 67.473-160.035 0-62.373-25.781-118.947-67.473-159.965zM393.547 146.068l-20.379 20.015c23.474 22.983 38.02 54.806 38.02 89.882 0 35.148-14.545 66.971-38.092 89.954l20.377 20.014c28.732-28.146 46.518-67.04 46.518-109.968-.001-42.926-17.786-81.75-46.444-109.897zM322.258 216.08c10.441 10.184 16.922 24.257 16.922 39.885 0 15.629-6.48 29.774-16.994 39.955l20.379 20.014c15.697-15.274 25.418-36.561 25.418-59.97 0-23.408-9.721-44.553-25.346-59.898l-20.379 20.014z"/></g></svg>
