<svg xmlns="http://www.w3.org/2000/svg" viewBox="0 0 500 500" enable-background="new 0 0 500 500"><path fill="#010101" d="M438.2 241.9c-5.8 0-11.1 3.3-13.7 8.5l-12.8 25.6-46.3-163c-2-7-8.5-11.5-15.7-11.1-7.2.4-13.2 5.8-14.2 12.9l-33.9 216.5-36.4-271.1c-1-7.5-7.3-13.2-14.9-13.3-7.5 0-14.2 5.3-15.3 12.9l-32 195.2-11.8-101.8c-.9-7.1-6.4-12.6-13.5-13.4-7.1-.8-13.8 3.4-16.2 10.2l-37.3 108-17.1-55c-1.9-6.3-7.7-10.6-14.3-10.7-6.6-.3-12.5 3.9-14.8 10.1l-16.2 44.8h-61.8v30.6h72.5c6.4 0 12.3-4 14.4-10.1l4.3-12 17.3 56c1.9 6.3 7.7 10.6 14.4 10.7 6.6-.1 12.5-4 14.7-10.4l30.7-88.8 16.7 143.9c.9 7.6 7.2 13.4 14.8 13.5h.4c7.5 0 13.9-5.4 15-12.9l33.2-201.7 36.6 273.8c1 7.6 7.5 13.2 15 13.3h.1c7.6 0 13.9-5.4 15.2-12.9l39.5-251.6 38.1 134c1.8 6.1 7 10.5 13.3 11.1 6.3.5 12.3-2.8 15.2-8.5l26.2-52.6h52.4v-30.6h-61.8v-.1z"/></svg>