<svg xmlns="http://www.w3.org/2000/svg" viewBox="0 0 512 512" style="width:64px;height:64px"><style type="text/css">.st0{fill:#4B4B4B;}</style><g fill="#fff"><path class="st0" d="M401.013 218.24v26.71c-.012 40.006-16.224 76.154-42.518 102.482-26.33 26.294-62.477 42.518-102.484 42.53-40.018-.012-76.165-16.236-102.494-42.53-26.295-26.329-42.519-62.476-42.53-102.482v-26.71h-35.398v26.71c.034 91.502 68.445 167.044 156.824 178.682v88.368h47.197v-88.368c88.368-11.638 156.766-87.18 156.802-178.682v-26.71h-35.399zM256.011 325.067c44.201-.012 80.106-35.928 80.117-80.117v-164.821c-.01-44.201-35.916-80.117-80.117-80.129-44.201.012-80.117 35.928-80.129 80.129v164.821c.012 44.189 35.928 80.105 80.129 80.117z"/></g></svg>