<svg xmlns="http://www.w3.org/2000/svg" width="512" height="512" viewBox="0 0 512 512" style="width:64px;height:64px"><style type="text/css">.st0{fill:#4B4B4B;}</style><g fill="#fff"><path class="st0" d="M207.063 167.141c-1.031-.609-2.344-.641-3.406-.031-1.031.594-1.688 1.719-1.688 2.938v171.89100000000002c0 1.234.656 2.344 1.688 2.938 1.063.625 2.375.594 3.406-.031l144-85.953c1.031-.594 1.641-1.703 1.641-2.906 0-1.172-.609-2.297-1.641-2.891l-144-85.955zM256 0c-141.375 0-256 114.625-256 256s114.625 256 256 256 256-114.625 256-256-114.625-256-256-256zm0 448c-105.875 0-192-86.125-192-192s86.125-192 192-192 192 86.125 192 192-86.125 192-192 192z"/></g></svg>